# xmcd
#
# Track frame offsets: 
#        150
#        6953
#        14265
#        22353
#        30673
#        38813
#        47823
#        56683
#        65425
#        74168
#        82775
#        91128
#        99710
#        108798
#        116968
#        125378
#        134115
#        143250
#        152060
#        160693
#        169048
#        176960
#
# Disc length: 2471 seconds
#
# Revision: 0
# Processed by: cddbd v1.5.2PL0 Copyright (c) Steve Scherf et al.
# Submitted via: ExactAudioCopy v0.95b3
#
DISCID=2f09a516
DTITLE=Leon McAuliffe - World Masters 1953
DYEAR=1953
DGENRE=Country
TTITLE0=TEXAS DRUMMER BOY
TTITLE1=MR STEEL GUITAR
TTITLE2=I'VE NEVER LIVED IN TENNESSEE
TTITLE3=NITE TRIAN
TTITLE4=CLOSE SHAVE
TTITLE5=ONE O'CLOCK JUMP
TTITLE6=BEAUMONT RAG
TTITLE7=BEAR CREEK HOP
TTITLE8=GOIN' HOME
TTITLE9=THIS IS SOUTHLAND
TTITLE10=BLUE SKIRT WALTZ
TTITLE11=BOOT HEEL DRAG
TTITLE12=IN THE MOOD
TTITLE13=BOIL 'EM CABBAGE DOWN
TTITLE14=BLACK AND WHITE RAG
TTITLE15=CIMARRON BLUES
TTITLE16=PERDIDO
TTITLE17=BOUNCIN' BOBBIE
TTITLE18=CHERRYLANE WALTZ
TTITLE19=MANDY MAKE UP YOUR MIND
TTITLE20=LITTLE ROCK GETAWAY
TTITLE21=DON'CHA HEAR DEM BELLS
EXTD=
EXTT0=
EXTT1=
EXTT2=
EXTT3=
EXTT4=
EXTT5=
EXTT6=
EXTT7=
EXTT8=
EXTT9=
EXTT10=
EXTT11=
EXTT12=
EXTT13=
EXTT14=
EXTT15=
EXTT16=
EXTT17=
EXTT18=
EXTT19=
EXTT20=
EXTT21=
PLAYORDER=
